<svg xmlns="http://www.w3.org/2000/svg" width="16" height="16" viewBox="-3.0 -3.0 30.0 30.0"><defs><style id="current-color-scheme" type="text/css">.ColorScheme-Text { color: #232629; }</style></defs><path fill="currentColor" d="M15.442,7.442 L8.942,13.942 Q7.884,15 8.942,16.058 Q10,17.116 11.058,16.058 L17.558,9.558 Q18.618,8.498 18.618,7 Q18.618,5.502 17.558,4.442 Q16.279,3.163 15,3.163 Q13.721,3.163 12.442,4.442 L5.942,10.942 Q4.261,12.623 4.261,15 Q4.261,17.377 5.942,19.058 Q7.623,20.739 10,20.739 Q12.377,20.739 14.058,19.058 L20.558,12.558 Q20.741,12.375 21,12.375 Q21.259,12.375 21.442,12.558 Q21.625,12.741 21.625,13 Q21.625,13.259 21.442,13.442 L14.942,19.942 Q12.895,21.989 10,21.989 Q7.105,21.989 5.058,19.942 Q3.011,17.895 3.011,15 Q3.011,12.105 5.058,10.058 L11.558,3.558 Q12.984,2.132 15,2.132 Q17.016,2.132 18.442,3.558 Q19.868,4.984 19.868,7 Q19.868,9.016 18.442,10.442 L11.942,16.942 Q10,18.884 8.058,16.942 Q6.116,15 8.058,13.058 L14.558,6.558 Q14.741,6.375 15,6.375 Q15.259,6.375 15.442,6.558 Q15.625,6.741 15.625,7 Q15.625,7.259 15.442,7.442 Z" class="ColorScheme-Text" /></svg>